<?xml version="1.0" encoding="utf-8"?>
<!-- Generator: Adobe Illustrator 27.3.1, SVG Export Plug-In . SVG Version: 6.00 Build 0)  -->
<svg version="1.1" id="レイヤー_1" xmlns="http://www.w3.org/2000/svg" xmlns:xlink="http://www.w3.org/1999/xlink" x="0px"
	 y="0px" viewBox="0 0 16 16" style="enable-background:new 0 0 16 16;" xml:space="preserve">
<style type="text/css">
	.st0{fill-rule:evenodd;clip-rule:evenodd;fill:#FFFFFF;}
</style>
<path class="st0" d="M8,10c2.4-0.5,4-2.5,4-5c0-2.2-1.8-4-4-4S4,2.8,4,5C4,7.5,5.6,9.5,8,10z M13,5c0,2.8-1.8,5.2-4.5,5.9l0.2,0.5
	c0.1,0.1,0,0.3-0.1,0.3c-0.1,0.1-0.3,0-0.3-0.1l0,0c0,0.1,0,0.2,0,0.3c0.1,0.3,0.2,0.5,0.4,1C9,13.5,9,14,8.8,14.5
	c-0.2,0.5-0.4,0.9-0.6,1.1l0,0c-0.1,0.1-0.2,0.1-0.3,0.1c-0.1-0.1-0.1-0.2-0.1-0.3l0,0c0.2-0.3,0.4-0.6,0.5-1c0.1-0.4,0.2-0.8,0-1.2
	l0,0C8,12.6,7.9,12.3,7.8,12c0-0.1,0-0.3-0.1-0.4l0,0.1c-0.1,0.1-0.2,0.2-0.3,0.1c-0.1-0.1-0.2-0.2-0.1-0.3c0,0,0,0,0,0l0.2-0.5
	C4.8,10.2,3,7.8,3,5c0-2.8,2.2-5,5-5S13,2.2,13,5z M6.1,4.5c0.2-0.7,0.7-1.3,1.4-1.4C7.8,3,8,2.8,8,2.5S7.8,2,7.5,2
	C6.2,2.3,5.3,3.2,5,4.5C5,4.8,5.2,5,5.5,5S6,4.8,6.1,4.5z"/>
</svg>
