<?xml version="1.0" encoding="utf-8"?>
<!-- Generator: Adobe Illustrator 27.3.1, SVG Export Plug-In . SVG Version: 6.00 Build 0)  -->
<svg version="1.1" id="レイヤー_1" xmlns="http://www.w3.org/2000/svg" xmlns:xlink="http://www.w3.org/1999/xlink" x="0px"
	 y="0px" viewBox="0 0 16 16" style="enable-background:new 0 0 16 16;" xml:space="preserve">
<style type="text/css">
	.st0{fill:#FFFFFF;}
</style>
<path class="st0" d="M11.5,6c0,0.3-0.2,0.5-0.5,0.5S10.5,6.3,10.5,6s0.2-0.5,0.5-0.5S11.5,5.8,11.5,6z M10,7.5
	c0.3,0,0.5-0.2,0.5-0.5S10.3,6.5,10,6.5S9.5,6.8,9.5,7S9.7,7.5,10,7.5z M12.5,7c0,0.3-0.2,0.5-0.5,0.5S11.5,7.3,11.5,7
	s0.2-0.5,0.5-0.5S12.5,6.8,12.5,7z M11,8.5c0.3,0,0.5-0.2,0.5-0.5c0-0.3-0.2-0.5-0.5-0.5S10.5,7.8,10.5,8C10.5,8.3,10.7,8.5,11,8.5z
	 M4.5,5.5h1v1h1v1h-1v1h-1v-1h-1v-1h1V5.5z"/>
<path class="st0" d="M3.1,3.3C3,3,3.1,2.7,3.4,2.6c0,0,0,0,0,0l1.9-0.5c0.3-0.1,0.5,0.1,0.6,0.4c0,0,0,0,0,0c0.7-0.1,1.3-0.1,2-0.1
	c0.7,0,1.4,0,2.1,0.1c0-0.3,0.3-0.5,0.6-0.4c0,0,0,0,0,0l1.9,0.5C12.9,2.7,13.1,3,13,3.3c0,0,0,0.1,0,0.1c0.1,0.1,0.3,0.2,0.4,0.3
	c0.4,0.4,0.8,1,1.1,1.8C14.8,6.2,15,7,15.3,7.9s0.3,1.8,0.4,2.6c0,0.8-0.1,1.6-0.3,2.2c-0.3,0.6-0.8,0.9-1.4,0.8
	c-0.6-0.1-1.1-0.4-1.5-0.8c-0.2-0.2-0.5-0.5-0.7-0.8c-0.1-0.1-0.2-0.3-0.4-0.4C10.5,10.7,9.6,10,8,10s-2.5,0.7-3.2,1.5
	c-0.1,0.1-0.2,0.3-0.4,0.4c-0.2,0.3-0.5,0.6-0.7,0.8c-0.4,0.4-0.9,0.7-1.5,0.8c-0.6,0.1-1.2-0.3-1.4-0.8c-0.3-0.6-0.4-1.4-0.3-2.2
	c0-0.8,0.2-1.7,0.4-2.6C1,7,1.2,6.2,1.6,5.4c0.3-0.7,0.7-1.4,1.1-1.8C2.8,3.5,2.9,3.4,3.1,3.3C3.1,3.3,3.1,3.3,3.1,3.3L3.1,3.3z
	 M5.1,3.7C4.2,3.9,3.6,4.1,3.4,4.4C3.1,4.7,2.8,5.2,2.5,5.8C2.2,6.6,1.9,7.4,1.7,8.1c-0.2,0.8-0.3,1.6-0.3,2.4
	c0,0.8,0.1,1.4,0.2,1.8c0.1,0.2,0.2,0.3,0.4,0.2c0.3,0,0.6-0.2,0.9-0.5c0.2-0.2,0.4-0.4,0.6-0.7c0.1-0.2,0.3-0.3,0.4-0.5
	C4.9,10,6,9,8,9s3.1,0.9,4,1.9c0.2,0.2,0.3,0.3,0.4,0.5c0.2,0.3,0.4,0.5,0.6,0.7c0.3,0.3,0.6,0.5,0.9,0.5c0.2,0,0.4-0.1,0.4-0.2
	c0.2-0.4,0.3-1,0.2-1.8c0-0.8-0.1-1.6-0.3-2.4c-0.2-0.8-0.4-1.6-0.7-2.3c-0.3-0.7-0.6-1.2-0.9-1.5c-0.3-0.3-0.9-0.5-1.7-0.7
	C10.1,3.5,9,3.4,8,3.4S5.9,3.5,5.1,3.7z"/>
</svg>
